<svg width="46" height="46" viewBox="0 0 46 46" fill="none" xmlns="http://www.w3.org/2000/svg">
<path d="M32.3703 40.6081L25.7517 37.2988C23.9068 36.3859 21.7577 36.3859 19.9128 37.2988L13.2942 40.6081C7.60757 43.4419 1.6166 37.3368 4.58356 31.7262L6.14311 28.7973C6.35232 28.3979 6.69466 28.0746 7.11308 27.8844L31.153 17.0436C32.142 16.6061 33.3022 17.0055 33.7967 17.9565L41.0429 31.7262C44.0099 37.3368 38.0379 43.4419 32.3703 40.6081Z" fill="#2C333C"/>
<path d="M29.6696 14.7423L13.9219 21.8363C12.1531 22.6351 10.3653 20.7332 11.2782 19.0215L17.06 8.04759C19.5134 3.38795 26.1701 3.38795 28.6235 8.04759L30.6585 11.9275C31.1911 12.9735 30.7346 14.2668 29.6696 14.7423Z" fill="#2C333C"/>
</svg>
