<svg width="37" height="37" viewBox="0 0 37 37" fill="none" xmlns="http://www.w3.org/2000/svg">
<path d="M24.2355 3.75812C23.6136 3.13619 22.5366 3.56092 22.5366 4.42556V9.71957C22.5366 11.9343 24.4175 13.7697 26.7081 13.7697C28.1491 13.7849 30.1514 13.7849 31.8655 13.7849C32.7302 13.7849 33.1853 12.7686 32.5785 12.1618C30.3941 9.96227 26.4805 6.00314 24.2355 3.75812Z" fill="white"/>
<path d="M31.3647 15.8631H26.9808C23.3858 15.8631 20.4581 12.9354 20.4581 9.34035V4.95648C20.4581 4.12218 19.7755 3.43958 18.9412 3.43958H12.5095C7.83747 3.43958 4.06036 6.47339 4.06036 11.8888V25.3286C4.06036 30.7439 7.83747 33.7777 12.5095 33.7777H24.4324C29.1045 33.7777 32.8816 30.7439 32.8816 25.3286V17.38C32.8816 16.5457 32.199 15.8631 31.3647 15.8631ZM17.7125 27.3309H11.6449C11.023 27.3309 10.5072 26.8151 10.5072 26.1932C10.5072 25.5713 11.023 25.0555 11.6449 25.0555H17.7125C18.3345 25.0555 18.8502 25.5713 18.8502 26.1932C18.8502 26.8151 18.3345 27.3309 17.7125 27.3309ZM20.7464 21.2632H11.6449C11.023 21.2632 10.5072 20.7475 10.5072 20.1256C10.5072 19.5036 11.023 18.9879 11.6449 18.9879H20.7464C21.3683 18.9879 21.884 19.5036 21.884 20.1256C21.884 20.7475 21.3683 21.2632 20.7464 21.2632Z" fill="white"/>
</svg>
