<svg width="46" height="46" viewBox="0 0 46 46" fill="none" xmlns="http://www.w3.org/2000/svg">
<path d="M36.8397 9.41697L25.6946 4.45302C24.059 3.7303 21.5865 3.7303 19.9509 4.45302L8.80578 9.41697C5.99097 10.6722 5.57256 12.3839 5.57256 13.2968C5.57256 14.2097 5.99097 15.9215 8.80578 17.1767L19.9509 22.1407C20.7687 22.502 21.7957 22.6922 22.8228 22.6922C23.8498 22.6922 24.8768 22.502 25.6946 22.1407L36.8397 17.1767C39.6545 15.9215 40.0729 14.2097 40.0729 13.2968C40.0729 12.3839 39.6735 10.6722 36.8397 9.41697Z" fill="#2C333C"/>
<path d="M22.8228 32.525C22.1 32.525 21.3773 32.3729 20.7116 32.0876L7.89287 26.3819C5.93392 25.507 4.4124 23.1677 4.4124 21.0185C4.4124 20.2388 5.04002 19.6111 5.8198 19.6111C6.59958 19.6111 7.22721 20.2388 7.22721 21.0185C7.22721 22.0456 8.08306 23.3769 9.03401 23.7953L21.8528 29.501C22.4614 29.7673 23.1651 29.7673 23.7737 29.501L36.5925 23.7953C37.5434 23.3769 38.3993 22.0646 38.3993 21.0185C38.3993 20.2388 39.0269 19.6111 39.8067 19.6111C40.5865 19.6111 41.2141 20.2388 41.2141 21.0185C41.2141 23.1487 39.6926 25.507 37.7336 26.3819L24.9148 32.0876C24.2682 32.3729 23.5455 32.525 22.8228 32.525Z" fill="#2C333C"/>
<path d="M22.8228 41.9584C22.1 41.9584 21.3773 41.8062 20.7116 41.521L7.89287 35.8153C5.78176 34.8833 4.4124 32.7722 4.4124 30.4519C4.4124 29.6722 5.04002 29.0445 5.8198 29.0445C6.59958 29.0445 7.22721 29.6722 7.22721 30.4519C7.22721 31.6501 7.93091 32.7342 9.03401 33.2287L21.8528 38.9344C22.4614 39.2006 23.1651 39.2006 23.7737 38.9344L36.5925 33.2287C37.6766 32.7532 38.3993 31.6501 38.3993 30.4519C38.3993 29.6722 39.0269 29.0445 39.8067 29.0445C40.5865 29.0445 41.2141 29.6722 41.2141 30.4519C41.2141 32.7722 39.8447 34.8643 37.7336 35.8153L24.9148 41.521C24.2682 41.8062 23.5455 41.9584 22.8228 41.9584Z" fill="#2C333C"/>
</svg>
