<svg width="37" height="37" viewBox="0 0 37 37" fill="none" xmlns="http://www.w3.org/2000/svg">
<path d="M19.3174 30.6788C19.7342 30.7758 19.7724 31.3216 19.3664 31.4569L16.9697 32.2457C10.9476 34.1874 7.77726 32.5643 5.82045 26.5422L3.87881 20.5504C1.93717 14.5282 3.54509 11.3427 9.56721 9.40109C10.4935 9.09434 11.4158 10.0309 11.182 10.9782C11.1695 11.0286 11.1571 11.0793 11.1448 11.1304L9.65823 17.4862C7.98963 24.6309 10.4319 28.5748 17.5765 30.2738L19.3174 30.6788Z" fill="white"/>
<path d="M26.1323 5.27504L23.5991 4.68344C18.5326 3.48508 15.514 4.47107 13.7392 8.14199C13.2841 9.06731 12.9201 10.1898 12.6167 11.4792L11.1301 17.835C9.64356 24.1757 11.6004 27.3005 17.9259 28.8023L20.4743 29.409C21.3541 29.6214 22.1732 29.7579 22.9317 29.8186C27.6644 30.2737 30.1825 28.059 31.4567 22.583L32.9433 16.2423C34.4298 9.90161 32.4882 6.76161 26.1323 5.27504ZM23.2806 20.6261C23.144 21.1419 22.689 21.4756 22.1732 21.4756C22.0822 21.4756 21.9912 21.4604 21.885 21.4453L17.4708 20.3228C16.864 20.1711 16.5 19.5491 16.6517 18.9424C16.8034 18.3356 17.4253 17.9716 18.0321 18.1232L22.4463 19.2458C23.0682 19.3975 23.4323 20.0194 23.2806 20.6261ZM27.7251 15.499C27.5886 16.0147 27.1335 16.3485 26.6178 16.3485C26.5267 16.3485 26.4357 16.3333 26.3295 16.3181L18.9725 14.4523C18.3658 14.3006 18.0017 13.6787 18.1534 13.0719C18.3051 12.4652 18.927 12.1011 19.5338 12.2528L26.8908 14.1186C27.5127 14.2551 27.8768 14.8771 27.7251 15.499Z" fill="white"/>
</svg>
