<svg width="46" height="46" viewBox="0 0 46 46" fill="none" xmlns="http://www.w3.org/2000/svg">
<path d="M33.3402 14.8944C33.2071 14.8754 33.074 14.8754 32.9408 14.8944C29.9929 14.7993 27.6536 12.3839 27.6536 9.41698C27.6536 6.39297 30.107 3.9205 33.15 3.9205C36.1741 3.9205 38.6465 6.37395 38.6465 9.41698C38.6275 12.3839 36.2882 14.7993 33.3402 14.8944Z" fill="#2C333C"/>
<path d="M39.5404 28.0746C37.4103 29.501 34.4243 30.0335 31.6666 29.6722C32.3893 28.1126 32.7697 26.3819 32.7887 24.5561C32.7887 22.6542 32.3703 20.8474 31.5715 19.2688C34.3863 18.8884 37.3723 19.4209 39.5214 20.8474C42.5264 22.8253 42.5264 26.0776 39.5404 28.0746Z" fill="#2C333C"/>
<path d="M12.2482 14.8944C12.3813 14.8754 12.5145 14.8754 12.6476 14.8944C15.5955 14.7993 17.9349 12.3839 17.9349 9.41698C17.9349 6.37395 15.4814 3.9205 12.4384 3.9205C9.41438 3.9205 6.96094 6.37395 6.96094 9.41698C6.96094 12.3839 9.30027 14.7993 12.2482 14.8944Z" fill="#2C333C"/>
<path d="M12.4574 24.5561C12.4574 26.4009 12.8568 28.1506 13.5795 29.7292C10.8979 30.0145 8.10208 29.4439 6.04803 28.0936C3.04303 26.0966 3.04303 22.8443 6.04803 20.8474C8.08306 19.478 10.9549 18.9264 13.6556 19.2307C12.8758 20.8283 12.4574 22.6351 12.4574 24.5561Z" fill="#2C333C"/>
<path d="M23.051 30.2998C22.8988 30.2808 22.7277 30.2808 22.5565 30.2998C19.057 30.1857 16.2612 27.3138 16.2612 23.7763C16.2802 20.1627 19.1901 17.2338 22.8227 17.2338C26.4363 17.2338 29.3653 20.1627 29.3653 23.7763C29.3462 27.3138 26.5695 30.1857 23.051 30.2998Z" fill="#2C333C"/>
<path d="M16.8698 34.2367C13.998 36.1576 13.998 39.3148 16.8698 41.2167C20.1411 43.4038 25.5044 43.4038 28.7757 41.2167C31.6475 39.2957 31.6475 36.1386 28.7757 34.2367C25.5234 32.0495 20.1601 32.0495 16.8698 34.2367Z" fill="#2C333C"/>
</svg>
