<svg width="38" height="37" viewBox="0 0 38 37" fill="none" xmlns="http://www.w3.org/2000/svg">
<path d="M14.4855 3.43959C10.5112 3.43959 7.28015 6.6706 7.28015 10.6449C7.28015 14.5434 10.3291 17.6985 14.3034 17.835C14.4248 17.8199 14.5461 17.8199 14.6372 17.835C14.6675 17.835 14.6827 17.835 14.713 17.835C14.7282 17.835 14.7282 17.835 14.7433 17.835C18.6266 17.6985 21.6756 14.5434 21.6908 10.6449C21.6908 6.6706 18.4598 3.43959 14.4855 3.43959Z" fill="white"/>
<path d="M22.1913 21.87C17.9591 19.0486 11.0572 19.0486 6.79471 21.87C4.86823 23.1594 3.8064 24.9038 3.8064 26.7696C3.8064 28.6354 4.86823 30.3647 6.77954 31.6389C8.90321 33.0648 11.6943 33.7777 14.4854 33.7777C17.2765 33.7777 20.0677 33.0648 22.1913 31.6389C24.1026 30.3495 25.1645 28.6203 25.1645 26.7393C25.1493 24.8735 24.1026 23.1442 22.1913 21.87Z" fill="white"/>
<path d="M31.1565 11.5398C31.3992 14.4826 29.3058 17.0614 26.4085 17.4103C26.3934 17.4103 26.3934 17.4103 26.3782 17.4103H26.3327C26.2417 17.4103 26.1507 17.4103 26.0748 17.4406C24.6034 17.5165 23.2534 17.0462 22.237 16.1816C23.7995 14.786 24.6944 12.6927 24.5124 10.4173C24.4062 9.18863 23.9815 8.06611 23.3444 7.11046C23.9208 6.82225 24.5883 6.64022 25.2709 6.57954C28.244 6.32167 30.8986 8.53636 31.1565 11.5398Z" fill="white"/>
<path d="M34.1901 25.5713C34.0688 27.0427 33.1283 28.3169 31.5507 29.1816C30.0338 30.0159 28.1225 30.4103 26.2263 30.3647C27.3185 29.3788 27.9556 28.1501 28.077 26.8455C28.2287 24.9646 27.3337 23.1594 25.5437 21.7184C24.5274 20.9144 23.3442 20.2773 22.0548 19.8071C25.4072 18.8362 29.6242 19.4885 32.2181 21.5818C33.6137 22.7044 34.3266 24.1151 34.1901 25.5713Z" fill="white"/>
</svg>
