<svg width="37" height="37" viewBox="0 0 37 37" fill="none" xmlns="http://www.w3.org/2000/svg">
<path d="M20.4735 23.1593H6.77585C4.01508 23.1593 2.25547 20.2013 3.59035 17.7743L7.12474 11.3426L10.4316 5.32046C11.812 2.81756 15.4222 2.81756 16.8026 5.32046L20.1246 11.3426L21.7174 14.2399L23.659 17.7743C24.9939 20.2013 23.2343 23.1593 20.4735 23.1593Z" fill="white"/>
<path d="M34.4593 24.6762C34.4593 30.1219 30.0451 34.5361 24.5994 34.5361C19.9728 34.5361 16.1047 31.3658 15.0277 27.0578C14.9215 26.6027 15.2704 26.1931 15.7406 26.1931H21.4594C23.5679 26.1931 25.4792 25.101 26.5562 23.2958C27.618 21.4755 27.6635 19.2912 26.632 17.4406L25.8736 16.045C25.5854 15.5293 25.9949 14.9073 26.5714 15.0135C31.0614 15.9237 34.4593 19.898 34.4593 24.6762Z" fill="white"/>
</svg>
