<svg width="39" height="39" viewBox="0 0 39 39" fill="none" xmlns="http://www.w3.org/2000/svg">
<path d="M38.0046 17.5431L35.4181 14.5381C34.9236 13.9675 34.5242 12.9025 34.5242 12.1417V8.90853C34.5242 6.89253 32.8696 5.23789 30.8536 5.23789H27.6204C26.8786 5.23789 25.7945 4.8385 25.224 4.34401L22.219 1.75745C20.9067 0.635335 18.7576 0.635335 17.4263 1.75745L14.4403 4.36303C13.8697 4.8385 12.7857 5.23789 12.0439 5.23789H8.75366C6.73766 5.23789 5.08302 6.89253 5.08302 8.90853V12.1608C5.08302 12.9025 4.68363 13.9675 4.20816 14.5381L1.64061 17.5621C0.53752 18.8744 0.53752 21.0045 1.64061 22.3168L4.20816 25.3408C4.68363 25.9114 5.08302 26.9764 5.08302 27.7182V30.9704C5.08302 32.9864 6.73766 34.641 8.75366 34.641H12.0439C12.7857 34.641 13.8697 35.0404 14.4403 35.5349L17.4453 38.1215C18.7576 39.2436 20.9067 39.2436 22.238 38.1215L25.243 35.5349C25.8136 35.0404 26.8786 34.641 27.6394 34.641H30.8726C32.8886 34.641 34.5432 32.9864 34.5432 30.9704V27.7372C34.5432 26.9955 34.9426 25.9114 35.4371 25.3408L38.0237 22.3358C39.1268 21.0235 39.1268 18.8554 38.0046 17.5431ZM28.7234 19.9395L26.4982 26.7102C26.213 27.8323 25.0148 28.7452 23.7976 28.7452H20.2791C19.6705 28.7452 18.8146 28.536 18.4343 28.1556L15.6385 25.9684C15.5814 27.1856 15.0299 27.6991 13.6795 27.6991H12.7666C11.3592 27.6991 10.7887 27.1476 10.7887 25.8163V16.7253C10.7887 15.394 11.3592 14.8424 12.7666 14.8424H13.6986C15.106 14.8424 15.6765 15.394 15.6765 16.7253V17.41L19.3662 11.9325C19.7466 11.3429 20.7165 10.9245 21.5343 11.2478C22.4282 11.5521 22.9988 12.5411 22.8086 13.416L22.3521 16.3829C22.3141 16.6492 22.3712 16.8964 22.5423 17.0866C22.6945 17.2578 22.9227 17.3719 23.1699 17.3719H26.8786C27.6013 17.3719 28.2099 17.6572 28.5713 18.1707C28.8946 18.6652 28.9517 19.2928 28.7234 19.9395Z" fill="#2C333C"/>
</svg>
